<svg width="212" height="69" viewBox="0 0 212 69" fill="none" xmlns="http://www.w3.org/2000/svg">
<circle cx="34" cy="34.0308" r="34" fill="#FF5678"/>
<path d="M52.47 32.3614C53.668 33.1519 53.668 34.9096 52.47 35.7001L26.6015 52.7689C25.2718 53.6463 23.5 52.6927 23.5 51.0996L23.5 16.962C23.5 15.3689 25.2718 14.4152 26.6015 15.2926L52.47 32.3614Z" fill="white"/>
<path d="M91.676 27.1568H97.076V28.2728L95.51 28.5068L97.778 36.6248L98.192 38.6228L98.606 36.6248L100.532 30.0368L100.028 28.5068L98.84 28.2728V27.1568H104.474V28.2728L102.746 28.5068L104.996 36.6248L105.482 38.7848L105.86 36.6248L107.912 28.5068L106.292 28.2728V27.1568H110.63V28.2728L109.478 28.5068L106.058 40.6208H103.682L101.198 32.2148L98.822 40.6208H96.482L92.774 28.5248L91.676 28.2728V27.1568ZM110.911 37.7228C110.911 36.6308 111.457 35.8088 112.549 35.2568C113.653 34.7048 115.075 34.4228 116.815 34.4108V33.9968C116.815 33.5048 116.761 33.1208 116.653 32.8448C116.557 32.5688 116.371 32.3648 116.095 32.2328C115.831 32.0888 115.441 32.0168 114.925 32.0168C114.337 32.0168 113.809 32.0948 113.341 32.2508C112.873 32.3948 112.387 32.5868 111.883 32.8268L111.325 31.6748C111.505 31.5188 111.805 31.3328 112.225 31.1168C112.657 30.9008 113.167 30.7148 113.755 30.5588C114.343 30.3908 114.949 30.3068 115.573 30.3068C116.497 30.3068 117.217 30.4268 117.733 30.6668C118.261 30.9068 118.639 31.2908 118.867 31.8188C119.095 32.3468 119.209 33.0548 119.209 33.9428V39.4508H120.181V40.4588C119.941 40.5188 119.599 40.5788 119.155 40.6388C118.711 40.6988 118.321 40.7288 117.985 40.7288C117.577 40.7288 117.301 40.6688 117.157 40.5488C117.025 40.4288 116.959 40.1828 116.959 39.8108V39.3248C116.635 39.6848 116.215 40.0088 115.699 40.2968C115.183 40.5848 114.601 40.7288 113.953 40.7288C113.401 40.7288 112.891 40.6148 112.423 40.3868C111.967 40.1468 111.601 39.8048 111.325 39.3608C111.049 38.9048 110.911 38.3588 110.911 37.7228ZM115.105 39.2348C115.357 39.2348 115.645 39.1628 115.969 39.0188C116.293 38.8628 116.575 38.6768 116.815 38.4608V35.5088C115.735 35.5088 114.925 35.6948 114.385 36.0668C113.857 36.4268 113.593 36.8948 113.593 37.4708C113.593 38.0468 113.725 38.4848 113.989 38.7848C114.265 39.0848 114.637 39.2348 115.105 39.2348ZM124.328 40.6928C123.572 40.6928 123.014 40.5188 122.654 40.1708C122.294 39.8228 122.114 39.2708 122.114 38.5148V31.9088H120.944V30.9728C121.04 30.9368 121.214 30.8768 121.466 30.7928C121.718 30.6968 121.91 30.6188 122.042 30.5588C122.246 30.4028 122.42 30.1328 122.564 29.7488C122.672 29.4968 122.87 28.8728 123.158 27.8768H124.598L124.67 30.5228H127.424V31.9088H124.688V36.9668C124.688 37.6388 124.706 38.1128 124.742 38.3888C124.778 38.6648 124.856 38.8448 124.976 38.9288C125.096 39.0008 125.306 39.0368 125.606 39.0368C125.906 39.0368 126.218 39.0068 126.542 38.9468C126.866 38.8748 127.136 38.7908 127.352 38.6948L127.694 39.7028C127.358 39.9548 126.866 40.1828 126.218 40.3868C125.57 40.5908 124.94 40.6928 124.328 40.6928ZM128.418 35.5808C128.418 34.5488 128.622 33.6308 129.03 32.8268C129.45 32.0228 130.044 31.3988 130.812 30.9548C131.592 30.4988 132.498 30.2708 133.53 30.2708C134.01 30.2708 134.424 30.3068 134.772 30.3788C135.12 30.4508 135.51 30.5468 135.942 30.6668L136.464 30.8108L136.356 33.8888H134.79L134.34 31.9088C134.268 31.5968 133.914 31.4408 133.278 31.4408C132.606 31.4408 132.078 31.7348 131.694 32.3228C131.322 32.9108 131.13 33.8288 131.118 35.0768C131.118 36.3968 131.346 37.4108 131.802 38.1188C132.258 38.8148 132.864 39.1628 133.62 39.1628C134.532 39.1628 135.372 38.9168 136.14 38.4248L136.554 39.3608C136.242 39.6968 135.762 40.0088 135.114 40.2968C134.478 40.5848 133.788 40.7288 133.044 40.7288C131.508 40.7288 130.35 40.2548 129.57 39.3068C128.802 38.3588 128.418 37.1168 128.418 35.5808ZM138.832 27.3728L137.464 27.1388V26.1668L140.812 25.7708H140.866L141.334 26.1128L141.352 30.1268L141.226 31.6928C141.598 31.3568 142.102 31.0448 142.738 30.7568C143.386 30.4688 144.064 30.3248 144.772 30.3248C145.528 30.3248 146.116 30.4688 146.536 30.7568C146.956 31.0328 147.25 31.4588 147.418 32.0348C147.586 32.6108 147.67 33.3788 147.67 34.3388V39.2888L148.822 39.4508V40.5308H144.088V39.4508L145.132 39.2888V34.3388C145.132 33.7148 145.09 33.2288 145.006 32.8808C144.922 32.5328 144.766 32.2748 144.538 32.1068C144.322 31.9388 143.998 31.8548 143.566 31.8548C143.194 31.8548 142.81 31.9448 142.414 32.1248C142.03 32.2928 141.688 32.4968 141.388 32.7368V39.2888L142.486 39.4508V40.5308H137.824V39.4508L138.832 39.3068V27.3728ZM153.398 30.5228H158.15V31.5668L156.962 31.8008L158.6 36.6968L159.176 38.6048L159.662 36.7508L161.264 31.8008L160.13 31.5668V30.5228H164.09V31.5668L163.154 31.8008L159.806 40.6748H157.718L154.136 31.8008L153.398 31.5668V30.5228ZM166.741 28.8848C166.309 28.8848 165.967 28.7588 165.715 28.5068C165.463 28.2548 165.337 27.9308 165.337 27.5348C165.337 27.0788 165.481 26.7008 165.769 26.4008C166.057 26.1008 166.441 25.9508 166.921 25.9508C167.401 25.9508 167.767 26.0828 168.019 26.3468C168.271 26.5988 168.397 26.9168 168.397 27.3008C168.397 27.7808 168.253 28.1648 167.965 28.4528C167.677 28.7408 167.275 28.8848 166.759 28.8848H166.741ZM165.787 32.2328L164.509 31.8908V30.6848L167.803 30.2888H167.839L168.343 30.6488V39.3068L169.549 39.4508V40.5308H164.527V39.4508L165.787 39.2888V32.2328ZM174.601 40.7288C173.857 40.7288 173.191 40.5548 172.603 40.2068C172.015 39.8468 171.547 39.2948 171.199 38.5508C170.851 37.8068 170.677 36.8768 170.677 35.7608C170.677 34.7528 170.881 33.8348 171.289 33.0068C171.709 32.1668 172.321 31.5008 173.125 31.0088C173.929 30.5168 174.895 30.2708 176.023 30.2708C176.479 30.2708 176.911 30.3188 177.319 30.4148V27.3728L175.555 27.1208V26.1308L179.263 25.7708H179.317L179.821 26.1488V39.4328H180.793V40.4588C179.929 40.6388 179.215 40.7288 178.651 40.7288C178.267 40.7288 177.991 40.6628 177.823 40.5308C177.667 40.4108 177.589 40.1648 177.589 39.7928V39.2888C177.277 39.7088 176.851 40.0568 176.311 40.3328C175.771 40.5968 175.201 40.7288 174.601 40.7288ZM175.537 39.2348C175.933 39.2348 176.281 39.1568 176.581 39.0008C176.893 38.8328 177.139 38.6348 177.319 38.4068V31.8548C177.235 31.7348 177.055 31.6328 176.779 31.5488C176.515 31.4648 176.227 31.4228 175.915 31.4228C175.147 31.4228 174.529 31.7588 174.061 32.4308C173.605 33.0908 173.377 34.1528 173.377 35.6168C173.377 36.8408 173.575 37.7528 173.971 38.3528C174.367 38.9408 174.889 39.2348 175.537 39.2348ZM186.643 40.7288C185.059 40.7288 183.877 40.2668 183.097 39.3428C182.329 38.4068 181.945 37.1348 181.945 35.5268C181.945 34.4468 182.143 33.5108 182.539 32.7188C182.947 31.9268 183.517 31.3208 184.249 30.9008C184.981 30.4808 185.827 30.2708 186.787 30.2708C187.987 30.2708 188.911 30.5888 189.559 31.2248C190.207 31.8488 190.543 32.7428 190.567 33.9068C190.567 34.6988 190.519 35.2868 190.423 35.6708H184.573C184.621 36.7628 184.879 37.6148 185.347 38.2268C185.815 38.8268 186.481 39.1268 187.345 39.1268C187.813 39.1268 188.293 39.0488 188.785 38.8928C189.289 38.7368 189.685 38.5508 189.973 38.3348L190.423 39.3248C190.099 39.6728 189.571 39.9968 188.839 40.2968C188.119 40.5848 187.387 40.7288 186.643 40.7288ZM188.047 34.5908C188.071 34.2548 188.083 33.9968 188.083 33.8168C188.083 32.2208 187.549 31.4228 186.481 31.4228C185.893 31.4228 185.437 31.6568 185.113 32.1248C184.789 32.5928 184.609 33.4148 184.573 34.5908H188.047ZM192.003 35.5448C192.003 34.4168 192.225 33.4568 192.669 32.6648C193.125 31.8728 193.731 31.2788 194.487 30.8828C195.243 30.4748 196.065 30.2708 196.953 30.2708C198.465 30.2708 199.629 30.7388 200.445 31.6748C201.273 32.5988 201.687 33.8588 201.687 35.4548C201.687 36.5948 201.459 37.5668 201.003 38.3708C200.559 39.1628 199.959 39.7568 199.203 40.1528C198.459 40.5368 197.637 40.7288 196.737 40.7288C195.237 40.7288 194.073 40.2668 193.245 39.3428C192.417 38.4068 192.003 37.1408 192.003 35.5448ZM196.881 39.5588C198.237 39.5588 198.915 38.2508 198.915 35.6348C198.915 34.2668 198.753 33.2288 198.429 32.5208C198.105 31.8008 197.577 31.4408 196.845 31.4408C195.453 31.4408 194.757 32.7488 194.757 35.3648C194.757 36.7328 194.925 37.7768 195.261 38.4968C195.609 39.2048 196.149 39.5588 196.881 39.5588ZM205.322 39.0548C205.418 39.1988 205.634 39.3368 205.97 39.4688C206.318 39.5888 206.666 39.6488 207.014 39.6488C207.578 39.6488 207.998 39.5348 208.274 39.3068C208.562 39.0668 208.706 38.7548 208.706 38.3708C208.706 37.9748 208.532 37.6568 208.184 37.4168C207.836 37.1648 207.248 36.8588 206.42 36.4988L205.916 36.2828C205.088 35.9348 204.47 35.5148 204.062 35.0228C203.654 34.5308 203.45 33.8948 203.45 33.1148C203.45 32.5748 203.612 32.0948 203.936 31.6748C204.26 31.2428 204.716 30.9068 205.304 30.6668C205.892 30.4268 206.57 30.3068 207.338 30.3068C207.902 30.3068 208.382 30.3428 208.778 30.4148C209.186 30.4868 209.612 30.5828 210.056 30.7028C210.296 30.7868 210.476 30.8348 210.596 30.8468V33.2048H209.174L208.76 31.8368C208.688 31.7168 208.526 31.6088 208.274 31.5128C208.022 31.4168 207.734 31.3688 207.41 31.3688C206.918 31.3688 206.522 31.4768 206.222 31.6928C205.934 31.8968 205.79 32.1848 205.79 32.5568C205.79 32.8928 205.892 33.1748 206.096 33.4028C206.3 33.6188 206.522 33.7868 206.762 33.9068C207.002 34.0268 207.446 34.2248 208.094 34.5008C208.742 34.7768 209.276 35.0408 209.696 35.2928C210.128 35.5448 210.482 35.8748 210.758 36.2828C211.046 36.6788 211.19 37.1648 211.19 37.7408C211.19 38.6288 210.842 39.3488 210.146 39.9008C209.45 40.4528 208.448 40.7288 207.14 40.7288C206.528 40.7288 205.976 40.6748 205.484 40.5668C205.004 40.4588 204.446 40.3148 203.81 40.1348L203.414 40.0088V37.6328H204.908L205.322 39.0548Z" fill="#2B2B2B"/>
</svg>
